<?xml version="1.0" standalone="no"?>
<!DOCTYPE svg PUBLIC "-//W3C//DTD SVG 20010904//EN"
 "http://www.w3.org/TR/2001/REC-SVG-20010904/DTD/svg10.dtd">
<svg version="1.0" xmlns="http://www.w3.org/2000/svg"
 width="100.000000pt" height="100.000000pt" viewBox="0 0 100.000000 100.000000"
 preserveAspectRatio="xMidYMid meet">
<metadata>
Created by potrace 1.14, written by Peter Selinger 2001-2017
</metadata>
<g transform="translate(0.000000,100.000000) scale(0.100000,-0.100000)"
fill="#000000" stroke="none">
<path d="M645 990 c-3 -5 -1 -10 4 -10 6 0 11 5 11 10 0 6 -2 10 -4 10 -3 0
-8 -4 -11 -10z"/>
<path d="M567 963 c-4 -6 -2 -15 4 -18 6 -4 14 -17 19 -29 l9 -21 0 23 c1 12
-3 22 -8 22 -5 0 -11 8 -13 18 -2 12 -6 13 -11 5z"/>
<path d="M503 916 l2 -50 -62 -24 c-81 -31 -153 -96 -191 -172 -17 -32 -32
-57 -34 -55 -10 10 -128 42 -128 35 0 -4 12 -11 28 -14 15 -4 43 -11 63 -17
l36 -9 -5 -89 c-3 -60 -1 -90 7 -95 8 -5 11 15 11 68 0 97 26 169 88 237 86
96 208 134 335 105 80 -19 77 -18 77 -7 0 12 -75 30 -145 35 l-60 4 -11 48
-12 49 1 -49z"/>
<path d="M534 931 c1 -16 4 -27 9 -24 10 6 9 41 -2 47 -4 3 -8 -8 -7 -23z"/>
<path d="M622 930 c0 -19 2 -27 5 -17 2 9 2 25 0 35 -3 9 -5 1 -5 -18z"/>
<path d="M652 930 c0 -19 2 -27 5 -17 2 9 2 25 0 35 -3 9 -5 1 -5 -18z"/>
<path d="M352 908 c12 -27 26 -48 30 -48 10 0 -12 45 -36 75 -10 12 -8 2 6
-27z"/>
<path d="M690 920 c0 -16 2 -30 4 -30 2 0 6 14 8 30 3 17 1 30 -4 30 -4 0 -8
-13 -8 -30z"/>
<path d="M425 910 c9 -16 17 -30 20 -30 2 0 -1 14 -6 30 -6 17 -15 30 -20 30
-5 0 -3 -13 6 -30z"/>
<path d="M321 885 c18 -25 34 -43 36 -41 7 6 -48 86 -59 86 -5 0 5 -20 23 -45z"/>
<path d="M720 899 c0 -16 4 -28 9 -25 8 5 3 56 -5 56 -2 0 -4 -14 -4 -31z"/>
<path d="M400 885 c0 -8 4 -15 10 -15 5 0 7 7 4 15 -4 8 -8 15 -10 15 -2 0 -4
-7 -4 -15z"/>
<path d="M300 863 c0 -6 8 -17 18 -24 16 -13 16 -13 2 6 -8 11 -16 22 -17 24
-2 2 -3 0 -3 -6z"/>
<path d="M200 857 c0 -9 80 -85 83 -78 2 3 -16 23 -40 45 -24 21 -43 36 -43
33z"/>
<path d="M750 813 c-56 -20 -80 -38 -89 -65 -6 -17 -9 -34 -6 -38 3 -4 -2 -13
-10 -20 -21 -18 -9 -30 30 -30 27 0 40 -8 64 -37 17 -21 31 -31 31 -23 0 68
38 110 97 110 18 0 24 4 19 15 -4 11 1 15 18 15 24 0 41 24 30 41 -3 5 -22 9
-42 9 -20 0 -46 7 -56 15 -20 15 -57 18 -86 8z m-20 -77 c0 -2 -8 -10 -17 -17
-16 -13 -17 -12 -4 4 13 16 21 21 21 13z"/>
<path d="M212 754 c10 -10 20 -15 24 -12 3 4 -5 12 -18 18 -22 12 -22 12 -6
-6z"/>
<path d="M160 742 c0 -8 70 -45 76 -40 1 2 -15 14 -37 26 -21 12 -39 19 -39
14z"/>
<path d="M160 706 c0 -2 11 -11 25 -20 14 -9 25 -13 25 -8 0 5 -11 14 -25 20
-14 6 -25 10 -25 8z"/>
<path d="M870 685 c0 -5 12 -38 26 -74 22 -56 26 -75 21 -129 -9 -87 -49 -171
-109 -228 -67 -63 -125 -87 -225 -92 -76 -4 -87 -2 -149 27 -37 17 -69 29 -72
26 -11 -10 34 -35 101 -56 177 -55 358 23 440 190 27 56 32 76 31 136 0 87
-20 168 -45 191 -10 9 -19 13 -19 9z"/>
<path d="M154 665 c11 -8 27 -15 35 -15 10 1 7 6 -9 15 -33 19 -50 18 -26 0z"/>
<path d="M558 596 c-35 -30 -106 -77 -158 -106 -52 -28 -111 -63 -130 -76 -28
-20 -42 -24 -70 -19 -19 4 -41 11 -47 17 -9 7 -13 7 -13 -1 0 -24 49 -43 103
-39 l55 3 1 -59 c1 -43 -4 -68 -19 -93 -12 -20 -18 -44 -15 -59 3 -13 7 -35
10 -49 7 -32 55 -37 55 -6 0 11 -4 23 -10 26 -26 16 -9 55 45 100 30 26 65 66
77 88 21 38 27 42 83 52 33 6 71 15 84 19 22 8 23 7 16 -34 -5 -29 -3 -46 7
-58 8 -9 19 -30 26 -45 15 -35 1 -42 -85 -42 -35 0 -63 -3 -63 -7 0 -23 181 1
209 28 12 11 9 16 -15 37 -39 34 -39 88 -1 146 31 47 30 59 -2 41 -27 -14 -56
1 -76 40 l-16 30 36 0 c33 0 36 2 30 21 -7 20 -5 21 29 15 34 -6 36 -5 36 19
0 18 -9 31 -32 45 -53 32 -79 26 -150 -34z"/>
<path d="M105 596 c68 -22 101 -28 90 -18 -11 10 -96 33 -117 31 -7 -1 5 -7
27 -13z"/>
<path d="M90 444 c0 -6 7 -19 16 -30 14 -18 14 -18 3 6 -14 31 -19 36 -19 24z"/>
<path d="M257 319 c13 -22 19 -26 21 -14 4 17 -15 45 -30 45 -5 0 -1 -14 9
-31z"/>
<path d="M575 50 c0 -34 4 -50 13 -50 8 0 10 8 6 27 -6 22 -4 25 10 20 9 -4
16 -2 16 3 0 6 -7 10 -15 10 -8 0 -15 7 -15 16 0 12 7 15 25 12 14 -3 25 -1
25 3 0 5 -15 9 -32 9 -33 0 -33 0 -33 -50z"/>
<path d="M658 50 c-2 -41 0 -50 14 -50 11 0 15 6 11 21 -4 12 0 25 8 30 10 6
10 9 2 9 -7 0 -13 7 -13 16 0 11 6 15 20 11 11 -3 20 -1 20 4 0 5 -13 9 -29 9
-28 0 -29 -2 -33 -50z"/>
<path d="M740 50 c0 -33 4 -50 13 -50 8 0 12 17 12 50 0 33 -4 50 -12 50 -9 0
-13 -17 -13 -50z"/>
</g>
</svg>
