<svg width="133" height="133" viewBox="0 0 133 133" fill="none" xmlns="http://www.w3.org/2000/svg">
<circle cx="66.5" cy="66.5" r="63" stroke="#268DCF" stroke-width="7"/>
<path d="M66.5007 62.4291C55.1787 62.4291 39.126 79.966 39.126 91.0358C39.126 96.0215 42.9485 99 49.3544 99C56.3179 99 60.916 95.4172 66.5007 95.4172C72.1339 95.4172 76.7448 99 83.647 99C90.0529 99 93.8754 96.0215 93.8754 91.0358C93.8754 79.966 77.8227 62.4291 66.5007 62.4291ZM45.502 60.6277C44.0192 55.6778 39.4511 52.4722 35.2992 53.4664C31.1474 54.4607 28.9845 59.2792 30.4673 64.2291C31.9501 69.179 36.5183 72.3847 40.6701 71.3904C44.8219 70.3962 46.9848 65.5777 45.502 60.6277ZM57.5811 57.6592C61.9924 56.4964 64.1995 50.525 62.5114 44.3223C60.8233 38.1195 55.8788 34.0353 51.4674 35.1981C47.0561 36.361 44.849 42.3323 46.5371 48.5351C48.2252 54.7378 53.1712 58.8235 57.5811 57.6592ZM97.7008 53.4679C93.5489 52.4736 88.9822 55.6793 87.498 60.6292C86.0152 65.5791 88.1781 70.3976 92.3299 71.3919C96.4817 72.3861 101.048 69.1805 102.533 64.2305C104.015 59.2806 101.853 54.4621 97.7008 53.4679ZM75.4203 57.6592C79.8316 58.8221 84.7762 54.7378 86.4643 48.5351C88.1524 42.3323 85.9453 36.3624 81.534 35.1981C77.1227 34.0339 72.1781 38.1195 70.49 44.3223C68.8019 50.525 71.009 56.4964 75.4203 57.6592Z" fill="#268DCF"/>
</svg>
