<svg width="133" height="133" viewBox="0 0 133 133" fill="none" xmlns="http://www.w3.org/2000/svg">
<path d="M108.025 65.8913C111.687 64.1194 114 60.4969 114 56.5355V55.4611C114 49.6828 109.161 45 103.19 45C98.5373 45 94.4075 47.8814 92.9355 52.1522C91.8195 55.3908 91.2499 58.5 87.3976 58.5H47.6009C43.6222 58.5 43.0119 54.9084 42.063 52.1522C40.5925 47.8814 36.4613 45 31.8098 45C25.8389 45 21 49.6828 21 55.4611V56.5355C21 60.4969 23.3134 64.1194 26.9752 65.8913C28.3455 66.5536 28.3455 68.4464 26.9752 69.1087C23.3134 70.8806 21 74.5031 21 78.4645V79.5389C21 85.3172 25.8389 90 31.8083 90C36.4613 90 40.591 87.1186 42.063 82.8478C43.179 79.6092 43.7487 76.5 47.6009 76.5H87.3976C91.3763 76.5 91.9866 80.0916 92.9355 82.8478C94.4075 87.1186 98.5387 90 103.19 90C109.16 90 113.999 85.3172 113.999 79.5389V78.4645C113.999 74.5017 111.685 70.8806 108.023 69.1087C106.654 68.4464 106.654 66.5536 108.025 65.8913Z" fill="#268DCF"/>
<circle cx="66.5" cy="66.5" r="63" stroke="#268DCF" stroke-width="7"/>
</svg>
