<svg width="133" height="134" viewBox="0 0 133 134" fill="none" xmlns="http://www.w3.org/2000/svg">
<path d="M64.9128 52.6033L38.6677 74.2986V97.714C38.6677 98.3203 38.9077 98.9018 39.3348 99.3305C39.762 99.7592 40.3413 100 40.9453 100L56.8971 99.9586C57.4992 99.9555 58.0756 99.7134 58.5003 99.285C58.9249 98.8566 59.1633 98.2769 59.1633 97.6726V83.9982C59.1633 83.3919 59.4033 82.8105 59.8304 82.3818C60.2575 81.9531 60.8369 81.7122 61.4409 81.7122H70.5513C71.1554 81.7122 71.7347 81.9531 72.1618 82.3818C72.589 82.8105 72.8289 83.3919 72.8289 83.9982V97.6626C72.828 97.9634 72.8862 98.2614 73.0003 98.5396C73.1143 98.8178 73.2819 99.0706 73.4935 99.2836C73.7051 99.4967 73.9565 99.6657 74.2333 99.781C74.5101 99.8963 74.8068 99.9557 75.1065 99.9557L91.0526 100C91.6567 100 92.236 99.7592 92.6631 99.3305C93.0902 98.9018 93.3302 98.3203 93.3302 97.714V74.2828L67.0908 52.6033C66.7823 52.3537 66.398 52.2176 66.0018 52.2176C65.6056 52.2176 65.2213 52.3537 64.9128 52.6033ZM106.369 67.3492L94.469 57.5038V37.7145C94.469 37.2598 94.289 36.8237 93.9687 36.5022C93.6483 36.1806 93.2139 36 92.7608 36H84.7892C84.3362 36 83.9017 36.1806 83.5813 36.5022C83.261 36.8237 83.081 37.2598 83.081 37.7145V48.0885L70.3364 37.5645C69.1133 36.5543 67.5786 36.002 65.9947 36.002C64.4108 36.002 62.8761 36.5543 61.653 37.5645L25.6199 67.3492C25.447 67.4927 25.3039 67.669 25.1988 67.868C25.0937 68.067 25.0288 68.2849 25.0076 68.5091C24.9865 68.7334 25.0095 68.9596 25.0755 69.1749C25.1415 69.3901 25.2491 69.5902 25.3922 69.7638L29.0221 74.1928C29.1648 74.367 29.3403 74.5111 29.5385 74.6171C29.7368 74.7231 29.954 74.7888 30.1775 74.8104C30.4011 74.832 30.6268 74.8092 30.8416 74.7432C31.0563 74.6772 31.2561 74.5693 31.4292 74.4257L64.9128 46.7455C65.2213 46.4959 65.6056 46.3598 66.0018 46.3598C66.398 46.3598 66.7823 46.4959 67.0908 46.7455L100.576 74.4257C100.749 74.5693 100.948 74.6773 101.163 74.7435C101.377 74.8098 101.602 74.8329 101.826 74.8117C102.049 74.7905 102.266 74.7253 102.465 74.6198C102.663 74.5144 102.839 74.3707 102.982 74.1971L106.611 69.7681C106.754 69.5935 106.862 69.3924 106.927 69.1762C106.992 68.9599 107.014 68.7329 106.991 68.5081C106.969 68.2834 106.902 68.0653 106.796 67.8664C106.689 67.6675 106.544 67.4917 106.369 67.3492Z" fill="#268DCF"/>
<circle cx="66.5" cy="67.5" r="63" stroke="#268DCF" stroke-width="7"/>
</svg>
