<svg width="133" height="133" viewBox="0 0 133 133" fill="none" xmlns="http://www.w3.org/2000/svg">
<circle cx="66.5" cy="66.5" r="63" stroke="#268DCF" stroke-width="7"/>
<path d="M94.4286 59.5357H73.8571V38.6429C73.8571 36.0791 71.81 34 69.2857 34H64.7143C62.19 34 60.1429 36.0791 60.1429 38.6429V59.5357H39.5714C37.0471 59.5357 35 61.6148 35 64.1786V68.8214C35 71.3852 37.0471 73.4643 39.5714 73.4643H60.1429V94.3571C60.1429 96.9209 62.19 99 64.7143 99H69.2857C71.81 99 73.8571 96.9209 73.8571 94.3571V73.4643H94.4286C96.9529 73.4643 99 71.3852 99 68.8214V64.1786C99 61.6148 96.9529 59.5357 94.4286 59.5357Z" fill="#268DCF"/>
</svg>
