<svg width="133" height="133" viewBox="0 0 133 133" fill="none" xmlns="http://www.w3.org/2000/svg">
<path d="M66.5 31C46.8807 31 31 46.8775 31 66.5C31 86.1193 46.8775 102 66.5 102C73.393 102 80.1477 99.9759 85.883 96.2423C87.6015 95.1236 87.9765 92.7656 86.6777 91.1789L85.221 89.3992C84.1229 88.0578 82.1893 87.7291 80.7301 88.665C76.5087 91.3725 71.555 92.8387 66.5 92.8387C51.9768 92.8387 40.1613 81.0232 40.1613 66.5C40.1613 51.9768 51.9768 40.1613 66.5 40.1613C80.8344 40.1613 92.8387 48.4092 92.8387 63.0645C92.8387 68.6165 89.8193 74.4792 84.512 75.0448C82.0285 74.9798 82.0914 73.2043 82.5829 70.747L85.9372 53.4107C86.3475 51.2908 84.7235 49.3226 82.5645 49.3226H76.1257C75.6502 49.3226 75.1915 49.4976 74.8368 49.8142C74.4822 50.1308 74.2566 50.5669 74.2029 51.0393L74.2015 51.0525C72.0977 48.49 68.4116 47.9355 65.6169 47.9355C54.9412 47.9355 45.8871 56.844 45.8871 69.6163C45.8871 78.9641 51.1527 84.771 59.629 84.771C63.4917 84.771 67.8411 82.5327 70.3636 79.2839C71.7267 84.1657 76.1772 84.1655 80.4854 84.1655C96.0751 84.1655 102 73.9146 102 63.0645C102 43.5471 86.2573 31 66.5 31ZM63.3966 74.5777C60.2118 74.5777 58.2334 72.3413 58.2334 68.7415C58.2334 62.301 62.6392 58.3307 66.626 58.3307C69.817 58.3307 71.7221 60.5124 71.7221 64.1667C71.7221 70.617 66.873 74.5777 63.3966 74.5777Z" fill="#268DCF"/>
<circle cx="66.5" cy="66.5" r="63" stroke="#268DCF" stroke-width="7"/>
</svg>
