<svg width="133" height="134" viewBox="0 0 133 134" fill="none" xmlns="http://www.w3.org/2000/svg">
<path d="M100.348 33.5089L85.5203 30.0871C83.9092 29.7164 82.2553 30.5576 81.5995 32.0689L74.7558 48.0373C74.157 49.4345 74.5562 51.0741 75.7396 52.0294L84.3797 59.1011C79.247 70.0366 70.279 79.1329 59.1153 84.3654L52.0436 75.7254C51.0741 74.542 49.4487 74.1428 48.0515 74.7416L32.0831 81.5852C30.5575 82.2553 29.7163 83.9092 30.087 85.5203L33.5088 100.348C33.8653 101.888 35.234 103 36.8451 103C73.3586 103 103 73.4157 103 36.8451C103 35.2483 101.902 33.8653 100.348 33.5089Z" fill="#268DCF"/>
<path d="M129.5 67C129.5 102.095 101.269 130.5 66.5 130.5C31.7307 130.5 3.5 102.095 3.5 67C3.5 31.9052 31.7307 3.5 66.5 3.5C101.269 3.5 129.5 31.9052 129.5 67Z" stroke="#268DCF" stroke-width="7"/>
</svg>
